<mxfile host="app.diagrams.net" modified="2023-10-15T20:19:01.920Z" agent="Mozilla/5.0 (Macintosh; Intel Mac OS X 10_15_7) AppleWebKit/605.1.15 (KHTML, like Gecko) Version/17.0 Safari/605.1.15" etag="KvcZ2uxrHTDzBH7idBLO" version="22.0.4" type="google">
  <diagram id="C5RBs43oDa-KdzZeNtuy" name="Page-1">
    <mxGraphModel grid="1" page="1" gridSize="10" guides="1" tooltips="1" connect="1" arrows="1" fold="1" pageScale="1" pageWidth="827" pageHeight="1169" math="0" shadow="0">
      <root>
        <mxCell id="WIyWlLk6GJQsqaUBKTNV-0" />
        <mxCell id="WIyWlLk6GJQsqaUBKTNV-1" parent="WIyWlLk6GJQsqaUBKTNV-0" />
        <mxCell id="5_vcvgRIz9CzsPXUJh2r-3" value="" style="edgeStyle=orthogonalEdgeStyle;rounded=0;orthogonalLoop=1;jettySize=auto;html=1;" edge="1" parent="WIyWlLk6GJQsqaUBKTNV-1" source="WIyWlLk6GJQsqaUBKTNV-3" target="5_vcvgRIz9CzsPXUJh2r-2">
          <mxGeometry relative="1" as="geometry" />
        </mxCell>
        <mxCell id="WIyWlLk6GJQsqaUBKTNV-3" value="start" style="rounded=1;whiteSpace=wrap;html=1;fontSize=12;glass=0;strokeWidth=1;shadow=0;" vertex="1" parent="WIyWlLk6GJQsqaUBKTNV-1">
          <mxGeometry x="205" y="-150" width="120" height="40" as="geometry" />
        </mxCell>
        <mxCell id="5_vcvgRIz9CzsPXUJh2r-1" value="" style="edgeStyle=orthogonalEdgeStyle;rounded=0;orthogonalLoop=1;jettySize=auto;html=1;" edge="1" parent="WIyWlLk6GJQsqaUBKTNV-1" source="EGYSPMCl2pyu5vyUgKyw-0" target="EGYSPMCl2pyu5vyUgKyw-1">
          <mxGeometry relative="1" as="geometry" />
        </mxCell>
        <mxCell id="EGYSPMCl2pyu5vyUgKyw-0" value="Enter your name" style="rounded=1;whiteSpace=wrap;html=1;" vertex="1" parent="WIyWlLk6GJQsqaUBKTNV-1">
          <mxGeometry x="205" y="70" width="120" height="70" as="geometry" />
        </mxCell>
        <mxCell id="EGYSPMCl2pyu5vyUgKyw-3" value="" style="edgeStyle=orthogonalEdgeStyle;rounded=0;orthogonalLoop=1;jettySize=auto;html=1;" edge="1" parent="WIyWlLk6GJQsqaUBKTNV-1" source="EGYSPMCl2pyu5vyUgKyw-1" target="EGYSPMCl2pyu5vyUgKyw-2">
          <mxGeometry relative="1" as="geometry" />
        </mxCell>
        <mxCell id="EGYSPMCl2pyu5vyUgKyw-1" value="Enter bidding amount" style="rounded=1;whiteSpace=wrap;html=1;" vertex="1" parent="WIyWlLk6GJQsqaUBKTNV-1">
          <mxGeometry x="205" y="190" width="120" height="60" as="geometry" />
        </mxCell>
        <mxCell id="5_vcvgRIz9CzsPXUJh2r-6" value="" style="edgeStyle=orthogonalEdgeStyle;rounded=0;orthogonalLoop=1;jettySize=auto;html=1;" edge="1" parent="WIyWlLk6GJQsqaUBKTNV-1" source="EGYSPMCl2pyu5vyUgKyw-2" target="EGYSPMCl2pyu5vyUgKyw-6">
          <mxGeometry relative="1" as="geometry" />
        </mxCell>
        <mxCell id="EGYSPMCl2pyu5vyUgKyw-2" value="add it to dictionary" style="whiteSpace=wrap;html=1;rounded=1;" vertex="1" parent="WIyWlLk6GJQsqaUBKTNV-1">
          <mxGeometry x="205" y="360" width="120" height="60" as="geometry" />
        </mxCell>
        <mxCell id="EGYSPMCl2pyu5vyUgKyw-11" value="" style="edgeStyle=orthogonalEdgeStyle;rounded=0;orthogonalLoop=1;jettySize=auto;html=1;" edge="1" parent="WIyWlLk6GJQsqaUBKTNV-1" source="EGYSPMCl2pyu5vyUgKyw-6" target="EGYSPMCl2pyu5vyUgKyw-10">
          <mxGeometry relative="1" as="geometry" />
        </mxCell>
        <mxCell id="EGYSPMCl2pyu5vyUgKyw-6" value="ask for yes or no" style="rhombus;whiteSpace=wrap;html=1;rounded=1;" vertex="1" parent="WIyWlLk6GJQsqaUBKTNV-1">
          <mxGeometry x="180" y="520" width="170" height="160" as="geometry" />
        </mxCell>
        <object label="" Yes="" id="EGYSPMCl2pyu5vyUgKyw-8">
          <mxCell style="endArrow=classic;html=1;rounded=0;entryX=0;entryY=0.5;entryDx=0;entryDy=0;" edge="1" parent="WIyWlLk6GJQsqaUBKTNV-1" source="EGYSPMCl2pyu5vyUgKyw-6" target="EGYSPMCl2pyu5vyUgKyw-0">
            <mxGeometry width="50" height="50" relative="1" as="geometry">
              <mxPoint x="120" y="560" as="sourcePoint" />
              <mxPoint x="170" y="510" as="targetPoint" />
              <Array as="points">
                <mxPoint x="70" y="380" />
              </Array>
            </mxGeometry>
          </mxCell>
        </object>
        <mxCell id="EGYSPMCl2pyu5vyUgKyw-13" value="" style="edgeStyle=orthogonalEdgeStyle;rounded=0;orthogonalLoop=1;jettySize=auto;html=1;" edge="1" parent="WIyWlLk6GJQsqaUBKTNV-1" source="EGYSPMCl2pyu5vyUgKyw-10" target="EGYSPMCl2pyu5vyUgKyw-12">
          <mxGeometry relative="1" as="geometry" />
        </mxCell>
        <mxCell id="EGYSPMCl2pyu5vyUgKyw-10" value="do calculation for highest bid" style="rounded=1;whiteSpace=wrap;html=1;" vertex="1" parent="WIyWlLk6GJQsqaUBKTNV-1">
          <mxGeometry x="205" y="730" width="120" height="60" as="geometry" />
        </mxCell>
        <mxCell id="EGYSPMCl2pyu5vyUgKyw-15" value="" style="edgeStyle=orthogonalEdgeStyle;rounded=0;orthogonalLoop=1;jettySize=auto;html=1;" edge="1" parent="WIyWlLk6GJQsqaUBKTNV-1" source="EGYSPMCl2pyu5vyUgKyw-12" target="EGYSPMCl2pyu5vyUgKyw-14">
          <mxGeometry relative="1" as="geometry" />
        </mxCell>
        <mxCell id="EGYSPMCl2pyu5vyUgKyw-12" value="print winner" style="whiteSpace=wrap;html=1;rounded=1;" vertex="1" parent="WIyWlLk6GJQsqaUBKTNV-1">
          <mxGeometry x="205" y="900" width="120" height="60" as="geometry" />
        </mxCell>
        <mxCell id="EGYSPMCl2pyu5vyUgKyw-14" value="stop" style="whiteSpace=wrap;html=1;rounded=1;" vertex="1" parent="WIyWlLk6GJQsqaUBKTNV-1">
          <mxGeometry x="205" y="1020" width="120" height="60" as="geometry" />
        </mxCell>
        <mxCell id="5_vcvgRIz9CzsPXUJh2r-4" value="" style="edgeStyle=orthogonalEdgeStyle;rounded=0;orthogonalLoop=1;jettySize=auto;html=1;" edge="1" parent="WIyWlLk6GJQsqaUBKTNV-1" source="5_vcvgRIz9CzsPXUJh2r-2" target="EGYSPMCl2pyu5vyUgKyw-0">
          <mxGeometry relative="1" as="geometry" />
        </mxCell>
        <mxCell id="5_vcvgRIz9CzsPXUJh2r-2" value="print logo" style="whiteSpace=wrap;html=1;rounded=1;glass=0;strokeWidth=1;shadow=0;" vertex="1" parent="WIyWlLk6GJQsqaUBKTNV-1">
          <mxGeometry x="205" y="-40" width="120" height="60" as="geometry" />
        </mxCell>
        <mxCell id="5_vcvgRIz9CzsPXUJh2r-7" value="yes" style="text;html=1;strokeColor=none;fillColor=none;align=center;verticalAlign=middle;whiteSpace=wrap;rounded=0;" vertex="1" parent="WIyWlLk6GJQsqaUBKTNV-1">
          <mxGeometry x="145" y="500" width="60" height="30" as="geometry" />
        </mxCell>
        <mxCell id="5_vcvgRIz9CzsPXUJh2r-8" value="no" style="text;html=1;strokeColor=none;fillColor=none;align=center;verticalAlign=middle;whiteSpace=wrap;rounded=0;" vertex="1" parent="WIyWlLk6GJQsqaUBKTNV-1">
          <mxGeometry x="250" y="690" width="60" height="30" as="geometry" />
        </mxCell>
      </root>
    </mxGraphModel>
  </diagram>
</mxfile>
